<svg xmlns="http://www.w3.org/2000/svg" width="154" height="156" viewBox="0 0 154 156">
<g>
<path d="M 0.00 0.00 L 154.00 0.00 L 154.00 156.00 L 0.00 156.00 ZM 20.65 106.17 C23.92,109.78 26.04,108.43 41.74,92.76 L 57.00 77.53 L 68.26 88.76 C76.54,97.01 80.19,100.00 82.01,100.00 C83.87,100.00 88.70,95.78 101.74,82.76 L 119.00 65.52 L 119.00 74.93 C119.00,84.87 120.22,88.00 124.08,88.00 C128.48,88.00 129.00,85.84 129.00,67.46 C129.00,51.29 128.86,50.00 127.07,49.04 C125.96,48.44 118.09,48.00 108.62,48.00 C92.70,48.00 92.06,48.08 90.56,50.22 C88.55,53.08 88.59,53.59 91.00,56.00 C92.73,57.73 94.33,58.00 102.75,58.00 L 112.49 58.00 L 97.25 73.24 L 82.01 88.48 L 70.74 77.24 C62.35,68.87 58.82,66.00 56.95,66.00 C55.01,66.00 50.33,70.12 36.71,83.81 C26.97,93.61 19.00,102.24 19.00,102.98 C19.00,103.73 19.74,105.17 20.65,106.17 Z" fill="rgb(99,102,240)"/>
<path d="M 20.65 106.17 C19.74,105.17 19.00,103.73 19.00,102.98 C19.00,102.24 26.97,93.61 36.71,83.81 C50.33,70.12 55.01,66.00 56.95,66.00 C58.82,66.00 62.35,68.87 70.74,77.24 L 82.01 88.48 L 97.25 73.24 L 112.49 58.00 L 102.75 58.00 C94.33,58.00 92.73,57.73 91.00,56.00 C88.59,53.59 88.55,53.08 90.56,50.22 C92.06,48.08 92.70,48.00 108.62,48.00 C118.09,48.00 125.96,48.44 127.07,49.04 C128.86,50.00 129.00,51.29 129.00,67.46 C129.00,85.84 128.48,88.00 124.08,88.00 C120.22,88.00 119.00,84.87 119.00,74.93 L 119.00 65.52 L 101.74 82.76 C88.70,95.78 83.87,100.00 82.01,100.00 C80.19,100.00 76.54,97.01 68.26,88.76 L 57.00 77.53 L 41.74 92.76 C26.04,108.43 23.92,109.78 20.65,106.17 Z" fill="rgb(250,252,252)"/>
</g>
</svg>